<svg width="123" height="24" viewBox="0 0 123 24" fill="none" xmlns="http://www.w3.org/2000/svg">
<path d="M0.744 9.36C0.744 8.32 0.928 7.296 1.296 6.288C1.68 5.28 2.232 4.368 2.952 3.552C3.672 2.736 4.552 2.088 5.592 1.608C6.632 1.112 7.816 0.863999 9.144 0.863999C10.696 0.863999 12.048 1.208 13.2 1.896C14.352 2.584 15.208 3.48 15.768 4.584L13.224 6.336C12.936 5.696 12.56 5.192 12.096 4.824C11.632 4.456 11.128 4.192 10.584 4.032C10.056 3.872 9.544 3.792 9.048 3.792C8.216 3.792 7.488 3.96 6.864 4.296C6.256 4.632 5.744 5.072 5.328 5.616C4.912 6.16 4.6 6.768 4.392 7.44C4.2 8.112 4.104 8.784 4.104 9.456C4.104 10.464 4.312 11.408 4.728 12.288C5.144 13.152 5.728 13.856 6.48 14.4C7.232 14.944 8.104 15.216 9.096 15.216C9.608 15.216 10.136 15.128 10.68 14.952C11.24 14.776 11.752 14.496 12.216 14.112C12.68 13.728 13.04 13.232 13.296 12.624L16.008 14.184C15.656 15.032 15.104 15.752 14.352 16.344C13.6 16.92 12.752 17.368 11.808 17.688C10.864 17.992 9.928 18.144 9 18.144C7.784 18.144 6.672 17.896 5.664 17.4C4.672 16.888 3.808 16.216 3.072 15.384C2.336 14.536 1.76 13.592 1.344 12.552C0.944 11.496 0.744 10.432 0.744 9.36ZM25.4051 8.208C24.4291 8.208 23.5571 8.4 22.7891 8.784C22.0211 9.152 21.4691 9.688 21.1331 10.392V18H17.9171V5.424H20.8691V8.112C21.3011 7.248 21.8611 6.568 22.5491 6.072C23.2531 5.576 23.9891 5.304 24.7571 5.256C25.0931 5.256 25.3091 5.264 25.4051 5.28V8.208ZM27.4624 20.448C28.0544 20.608 28.5344 20.688 28.9024 20.688C29.3344 20.688 29.6784 20.504 29.9344 20.136C30.2064 19.784 30.5104 19.072 30.8464 18L25.8784 5.424H29.2144L32.5984 14.712L35.5744 5.424H38.6464L33.3664 20.496C33.0784 21.36 32.5584 22.072 31.8064 22.632C31.0704 23.208 30.1584 23.496 29.0704 23.496C28.5424 23.496 28.0064 23.408 27.4624 23.232V20.448ZM47.9297 18.24C46.9377 18.24 46.0737 18.016 45.3377 17.568C44.6017 17.12 44.0257 16.528 43.6097 15.792V23.112H40.3937V5.424H43.2017V7.584C43.6657 6.848 44.2657 6.272 45.0017 5.856C45.7537 5.424 46.6017 5.208 47.5457 5.208C48.6817 5.208 49.6897 5.504 50.5697 6.096C51.4497 6.672 52.1457 7.456 52.6577 8.448C53.1697 9.424 53.4257 10.504 53.4257 11.688C53.4257 12.92 53.1857 14.032 52.7057 15.024C52.2417 16 51.5937 16.784 50.7617 17.376C49.9457 17.952 49.0017 18.24 47.9297 18.24ZM46.8497 15.504C47.5057 15.504 48.0737 15.328 48.5537 14.976C49.0497 14.608 49.4337 14.136 49.7057 13.56C49.9937 12.968 50.1377 12.344 50.1377 11.688C50.1377 10.984 49.9857 10.352 49.6817 9.792C49.3777 9.216 48.9617 8.768 48.4337 8.448C47.9217 8.112 47.3297 7.944 46.6577 7.944C46.0497 7.944 45.4417 8.144 44.8337 8.544C44.2257 8.944 43.8177 9.448 43.6097 10.056V13.008C43.8977 13.712 44.3377 14.304 44.9297 14.784C45.5217 15.264 46.1617 15.504 46.8497 15.504ZM62.9766 17.352C62.5446 17.544 62.0086 17.736 61.3686 17.928C60.7446 18.12 60.0966 18.216 59.4246 18.216C58.8326 18.216 58.2886 18.112 57.7926 17.904C57.2966 17.696 56.8966 17.368 56.5926 16.92C56.3046 16.456 56.1606 15.856 56.1606 15.12V7.896H54.5046V5.424H56.1606V1.344H59.3766V5.424H62.0166V7.896H59.3766V14.04C59.3766 14.472 59.4886 14.784 59.7126 14.976C59.9526 15.168 60.2406 15.264 60.5766 15.264C60.9126 15.264 61.2406 15.208 61.5606 15.096C61.8806 14.984 62.1366 14.888 62.3286 14.808L62.9766 17.352ZM70.2954 18.24C68.9194 18.24 67.7354 17.944 66.7434 17.352C65.7674 16.744 65.0154 15.944 64.4874 14.952C63.9594 13.96 63.6954 12.888 63.6954 11.736C63.6954 10.568 63.9594 9.488 64.4874 8.496C65.0314 7.504 65.7914 6.712 66.7674 6.12C67.7594 5.512 68.9354 5.208 70.2954 5.208C71.6554 5.208 72.8234 5.512 73.7994 6.12C74.7914 6.712 75.5514 7.504 76.0794 8.496C76.6074 9.488 76.8714 10.568 76.8714 11.736C76.8714 12.888 76.6074 13.96 76.0794 14.952C75.5514 15.944 74.7914 16.744 73.7994 17.352C72.8234 17.944 71.6554 18.24 70.2954 18.24ZM67.0074 11.736C67.0074 12.472 67.1514 13.128 67.4394 13.704C67.7274 14.264 68.1194 14.704 68.6154 15.024C69.1114 15.344 69.6714 15.504 70.2954 15.504C70.9034 15.504 71.4554 15.344 71.9514 15.024C72.4474 14.688 72.8394 14.24 73.1274 13.68C73.4314 13.104 73.5834 12.448 73.5834 11.712C73.5834 10.992 73.4314 10.352 73.1274 9.792C72.8394 9.216 72.4474 8.768 71.9514 8.448C71.4554 8.112 70.9034 7.944 70.2954 7.944C69.6714 7.944 69.1114 8.112 68.6154 8.448C68.1194 8.768 67.7274 9.216 67.4394 9.792C67.1514 10.352 67.0074 11 67.0074 11.736Z" fill="white"/>
<path d="M78.3221 9.36C78.3221 8.32 78.5061 7.296 78.8741 6.288C79.2581 5.28 79.8101 4.368 80.5301 3.552C81.2501 2.736 82.1301 2.088 83.1701 1.608C84.2101 1.112 85.3941 0.863999 86.7221 0.863999C88.2741 0.863999 89.6261 1.208 90.7781 1.896C91.9301 2.584 92.7861 3.48 93.3461 4.584L90.8021 6.336C90.5141 5.696 90.1381 5.192 89.6741 4.824C89.2101 4.456 88.7061 4.192 88.1621 4.032C87.6341 3.872 87.1221 3.792 86.6261 3.792C85.7941 3.792 85.0661 3.96 84.4421 4.296C83.8341 4.632 83.3221 5.072 82.9061 5.616C82.4901 6.16 82.1781 6.768 81.9701 7.44C81.7781 8.112 81.6821 8.784 81.6821 9.456C81.6821 10.464 81.8901 11.408 82.3061 12.288C82.7221 13.152 83.3061 13.856 84.0581 14.4C84.8101 14.944 85.6821 15.216 86.6741 15.216C87.1861 15.216 87.7141 15.128 88.2581 14.952C88.8181 14.776 89.3301 14.496 89.7941 14.112C90.2581 13.728 90.6181 13.232 90.8741 12.624L93.5861 14.184C93.2341 15.032 92.6821 15.752 91.9301 16.344C91.1781 16.92 90.3301 17.368 89.3861 17.688C88.4421 17.992 87.5061 18.144 86.5781 18.144C85.3621 18.144 84.2501 17.896 83.2421 17.4C82.2501 16.888 81.3861 16.216 80.6501 15.384C79.9141 14.536 79.3381 13.592 78.9221 12.552C78.5221 11.496 78.3221 10.432 78.3221 9.36ZM94.6313 14.28C94.6313 13.464 94.8553 12.752 95.3033 12.144C95.7673 11.52 96.4073 11.04 97.2233 10.704C98.0393 10.368 98.9753 10.2 100.031 10.2C100.559 10.2 101.095 10.248 101.639 10.344C102.183 10.424 102.655 10.544 103.055 10.704V10.032C103.055 9.232 102.815 8.616 102.335 8.184C101.871 7.752 101.175 7.536 100.247 7.536C99.5593 7.536 98.9033 7.656 98.2793 7.896C97.6553 8.136 96.9993 8.488 96.3113 8.952L95.2793 6.84C96.1113 6.296 96.9593 5.888 97.8233 5.616C98.7033 5.344 99.6233 5.208 100.583 5.208C102.375 5.208 103.767 5.656 104.759 6.552C105.767 7.448 106.271 8.728 106.271 10.392V14.4C106.271 14.752 106.327 15 106.439 15.144C106.551 15.272 106.751 15.352 107.039 15.384V18C106.751 18.064 106.487 18.104 106.247 18.12C106.023 18.152 105.831 18.168 105.671 18.168C105.031 18.168 104.543 18.024 104.207 17.736C103.871 17.448 103.671 17.096 103.607 16.68L103.535 16.032C102.975 16.752 102.287 17.304 101.471 17.688C100.671 18.056 99.8473 18.24 98.9993 18.24C98.1513 18.24 97.3993 18.072 96.7433 17.736C96.0873 17.384 95.5673 16.912 95.1833 16.32C94.8153 15.712 94.6313 15.032 94.6313 14.28ZM102.455 14.928C102.855 14.544 103.055 14.176 103.055 13.824V12.552C102.223 12.216 101.383 12.048 100.535 12.048C99.6873 12.048 98.9993 12.232 98.4713 12.6C97.9433 12.952 97.6793 13.424 97.6793 14.016C97.6793 14.496 97.8713 14.928 98.2553 15.312C98.6393 15.696 99.1913 15.888 99.9113 15.888C100.391 15.888 100.855 15.8 101.303 15.624C101.767 15.448 102.151 15.216 102.455 14.928ZM116.813 18.24C115.821 18.24 114.957 18.016 114.221 17.568C113.485 17.12 112.909 16.528 112.493 15.792V23.112H109.277V5.424H112.085V7.584C112.549 6.848 113.149 6.272 113.885 5.856C114.637 5.424 115.485 5.208 116.429 5.208C117.565 5.208 118.573 5.504 119.453 6.096C120.333 6.672 121.029 7.456 121.541 8.448C122.053 9.424 122.309 10.504 122.309 11.688C122.309 12.92 122.069 14.032 121.589 15.024C121.125 16 120.477 16.784 119.645 17.376C118.829 17.952 117.885 18.24 116.813 18.24ZM115.733 15.504C116.389 15.504 116.957 15.328 117.437 14.976C117.933 14.608 118.317 14.136 118.589 13.56C118.877 12.968 119.021 12.344 119.021 11.688C119.021 10.984 118.869 10.352 118.565 9.792C118.261 9.216 117.845 8.768 117.317 8.448C116.805 8.112 116.213 7.944 115.541 7.944C114.933 7.944 114.325 8.144 113.717 8.544C113.109 8.944 112.701 9.448 112.493 10.056V13.008C112.781 13.712 113.221 14.304 113.812 14.784C114.405 15.264 115.045 15.504 115.733 15.504Z" fill="#0FAE96"/>
</svg>
